<svg width="159" height="24" viewBox="0 0 159 24" fill="none" xmlns="http://www.w3.org/2000/svg">
<path d="M51.4395 20.5608H47.3503V3.70727L51.4395 10.5098V20.5608ZM58.0892 20.5608L47.4267 2.63721H51.3248L61.9872 20.5608H58.0892ZM57.8981 2.63721H61.9872V19.4907L57.8981 12.6882V2.63721Z" fill="black"/>
<path d="M46.9299 11.8857C46.9299 16.9303 42.9172 21.0195 37.949 21.0195C32.9809 21.0195 28.9299 16.9303 28.9299 11.8857C28.9299 6.84113 32.9809 2.75195 37.949 2.75195C42.9172 2.75195 46.9299 6.84113 46.9299 11.8857ZM37.9108 6.72648C35.121 6.72648 32.8662 9.01947 32.8662 11.8475C32.8662 14.6755 35.1592 16.9685 37.9108 16.9685C40.6624 16.9685 42.9554 14.6755 42.9554 11.8475C42.9554 9.01947 40.7006 6.72648 37.9108 6.72648Z" fill="black"/>
<path d="M4.08917 13.3374H0V20.5603H4.08917V13.3374Z" fill="black"/>
<path d="M12.8407 4.58602C11.7707 3.21023 10.0127 2.56055 7.60507 2.56055H4.73883V5.88539L7.60507 5.9236C8.86622 5.96182 9.63055 6.64972 9.89806 8.06373V15.0956C9.63055 16.5096 8.828 17.1975 7.60507 17.2357L4.73883 17.2739V20.5988H7.60507C10.0127 20.5988 11.7707 19.9109 12.8407 18.5733C13.6051 17.3886 13.9872 16.2039 13.9872 14.9045V8.2166C14.0255 6.95545 13.6051 5.73252 12.8407 4.58602Z" fill="black"/>
<path d="M19.0319 20.5607H14.9427V2.59889H19.0319V20.5607ZM27.2484 12.497C27.5542 12.8409 27.8599 13.2995 28.1656 13.911C28.2803 14.0256 28.3949 14.5607 28.5096 15.5161L28.6242 16.1658C28.8917 17.8855 29.1592 18.9556 29.3121 19.4142C29.4268 19.7581 29.6943 20.1403 30.0764 20.5989H25.7962C25.6051 20.5989 25.3758 20.0639 25.0319 19.032C24.9554 18.9174 24.7261 17.7327 24.3822 15.4779C24.2293 14.9428 23.8854 14.5225 23.3503 14.2167C22.8535 14.0256 21.6306 13.9492 19.6815 13.9492V10.7008H22.9299C24.1911 10.2422 24.8408 9.40144 24.8408 8.17851V7.87278C24.5733 6.5352 23.7707 5.8473 22.5478 5.77087H19.6815V2.52246H22.5478C24.9554 2.52246 26.7134 3.17214 27.7835 4.47151C28.5478 5.57979 28.9299 6.7645 28.9299 7.98743V8.21673C28.9299 9.63074 28.5096 10.8537 27.707 11.9237C27.5924 12.153 27.4395 12.3441 27.2484 12.497Z" fill="black"/>
<path d="M67.1465 20.5609H63.0573V2.59912H67.1465V20.5609ZM76.242 2.63734V5.92396H67.8344V2.63734H76.242ZM75.5923 9.40167V12.6883H67.8726V9.40167H75.5923ZM76.2802 17.2361V20.5227H67.8726V17.2361H76.2802Z" fill="black"/>
<path d="M0.0382385 9.82178H0.80257V12.8409H0.0382385V9.82178ZM4.20384 10.8536V11.7708H0.955436V10.8536H4.20384Z" fill="#6F7271"/>
<path d="M4.20382 8.59876V9.51596H0V8.59876H4.20382ZM1.6051 6.95545H2.36943V8.44589H1.6051V6.95545ZM4.20382 5.84717V6.76437H0V5.84717H4.20382Z" fill="#6F7271"/>
<path d="M4.20382 4.62424V5.54144H0V4.62424H4.20382ZM0 2.56055H0.764331V4.47137H0V2.56055ZM1.6051 2.71341H2.36943V4.47137H1.6051V2.71341ZM3.43949 2.56055H4.20382V4.47137H3.43949V2.56055Z" fill="#6F7271"/>
<path d="M85.1465 5.84717C84.1147 5.96182 83.1975 6.53507 82.4331 7.49048C81.5541 8.59876 81.1338 9.97456 81.1338 11.5414C81.1338 13.1083 81.5541 14.4459 82.4331 15.5924C83.1975 16.586 84.1147 17.1211 85.1465 17.2739V20.5223C82.9299 20.4459 81.0573 19.5669 79.4522 17.8854C77.7707 16.1274 76.9299 14.0255 76.9299 11.5414C76.9299 9.05736 77.7707 6.91723 79.4522 5.15927C81.0191 3.51596 82.9299 2.63698 85.1465 2.56055V5.84717ZM88.7389 7.49048C87.8981 6.42042 86.9045 5.88539 85.758 5.80895V2.56055C88.0127 2.63698 89.9236 3.51596 91.5287 5.19749C92.3312 6.03825 92.9809 6.99367 93.3631 8.02552L89.8089 9.78348C89.6561 8.9045 89.2739 8.17838 88.7389 7.49048ZM91.5669 17.8854C89.9618 19.5669 88.051 20.4459 85.7962 20.5223V17.2739C86.9427 17.1975 87.9363 16.6625 88.7771 15.5924C89.1975 15.0574 89.5032 14.4841 89.7325 13.8726L93.172 15.6688C92.7516 16.4714 92.2166 17.1975 91.5669 17.8854Z" fill="#6F7271"/>
<path d="M98.1019 20.5223H94.0127V2.56055H98.1019V20.5223Z" fill="#6F7271"/>
<path d="M103.873 20.5225H99.7834V2.56068H103.873V20.5225ZM112.051 12.4588C112.357 12.8027 112.662 13.2613 112.968 13.8728C113.083 13.9874 113.197 14.5225 113.312 15.4779L113.427 16.1276C113.694 17.8091 113.962 18.9174 114.115 19.3377C114.229 19.6817 114.497 20.0639 114.879 20.5225H110.599C110.408 20.5225 110.178 19.9874 109.834 18.9556C109.758 18.8409 109.529 17.6562 109.185 15.4014C109.032 14.8664 108.688 14.446 108.153 14.1403C107.656 13.9492 106.433 13.8728 104.484 13.8728V10.6244H107.732C108.994 10.1658 109.643 9.32501 109.643 8.10208V7.79635C109.376 6.45877 108.611 5.77087 107.35 5.69443H104.484V2.52246H107.35C109.758 2.52246 111.516 3.17214 112.586 4.47151C113.35 5.57979 113.732 6.7645 113.732 7.98743V8.21673C113.732 9.63074 113.312 10.8537 112.51 11.9237C112.395 12.1148 112.242 12.3059 112.051 12.4588Z" fill="#6F7271"/>
<path d="M122.408 5.84717C121.376 5.96182 120.459 6.53507 119.694 7.49048C118.815 8.59876 118.395 9.97456 118.395 11.5414C118.395 13.1083 118.815 14.4459 119.694 15.5924C120.459 16.586 121.376 17.1211 122.408 17.2739V20.5223C120.191 20.4459 118.318 19.5669 116.713 17.8854C115.032 16.1274 114.191 14.0255 114.191 11.5414C114.191 9.05736 115.032 6.91723 116.713 5.15927C118.28 3.51596 120.191 2.63698 122.408 2.56055V5.84717ZM126.038 7.49048C125.197 6.42042 124.204 5.88539 123.057 5.80895V2.56055C125.312 2.63698 127.223 3.51596 128.828 5.19749C129.631 6.03825 130.28 6.99367 130.662 8.02552L127.108 9.78348C126.955 8.9045 126.573 8.17838 126.038 7.49048ZM128.866 17.8854C127.261 19.5669 125.35 20.4459 123.096 20.5223V17.2739C124.242 17.1975 125.236 16.6625 126.076 15.5924C126.497 15.0574 126.803 14.4841 127.032 13.8726L130.471 15.6688C130.051 16.4714 129.516 17.1975 128.866 17.8854Z" fill="#6F7271"/>
<path d="M135.363 20.5223H131.274V2.56055H135.363V20.5223ZM144.65 17.1975V20.4841H136.242V17.1975H144.65Z" fill="#6F7271"/>
<path d="M149.541 20.5223H145.452V2.56055H149.541V20.5223ZM158.637 2.59876V5.88539H150.229V2.59876H158.637ZM157.949 9.36309V12.6497H150.229V9.36309H157.949ZM158.675 17.1975V20.4841H150.268V17.1975H158.675Z" fill="#6F7271"/>
<path d="M33.0573 16.9682L36.3822 12.4204L37.414 12.5733L37.4522 12.5351V12.5733H37.5287L37.4904 12.6115L37.6433 13.6433L33.0573 16.9682Z" fill="#CE0E2D"/>
<path d="M36.4586 12.5352L37.3376 12.6498L33.4395 16.5097L36.4586 12.5352Z" fill="white"/>
<path d="M38.293 10.28L42.879 6.91699L39.5541 11.503L38.5223 11.3501L38.4841 11.3883V11.3501L38.4077 11.3119L38.4459 11.2737L38.293 10.28Z" fill="#CE0E2D"/>
<path d="M39.4777 11.3882L38.5987 11.2736L42.4968 7.37549L39.4777 11.3882Z" fill="white"/>
<path d="M38.5223 11.3504L38.4459 11.3121L38.5223 11.2739L38.4459 11.3121L38.5223 11.3504Z" fill="white"/>
<path d="M38.5605 11.3501L38.5223 11.3883L38.5605 11.3501Z" fill="#BCBEC0"/>
<path d="M37.3758 10.28L37.2229 11.2737L37.2612 11.3119L37.2229 11.3501V11.3883L37.1465 11.3501L36.1529 11.503L32.7898 6.91699L37.3758 10.28Z" fill="#CE0E2D"/>
<path d="M37.2612 10.3183L37.1465 11.1973L33.2867 7.3374L37.2612 10.3183Z" fill="white"/>
<path d="M38.4841 12.5731L38.4459 12.5348L38.4841 12.4966V12.4584L38.5605 12.4966L39.5542 12.3438L42.9172 16.9297L38.3312 13.5667L38.4841 12.5731Z" fill="#CE0E2D"/>
<path d="M38.4459 13.5284L38.5605 12.6494L42.4204 16.5093L38.4459 13.5284Z" fill="white"/>
<path d="M37.9108 0L39.6306 10.242L38.1019 11.6943L37.9108 0Z" fill="white"/>
<path d="M36.1529 10.3949L37.9108 0L38.1019 12.3822L36.1529 10.3949Z" fill="#CE0E2D"/>
<path d="M25.8344 12.0001L36.1911 10.2422L37.4905 11.8091L25.8344 12.0001Z" fill="white"/>
<path d="M36.2293 13.7581L25.8344 12.0002L38.3312 11.8091L36.2293 13.7581Z" fill="#CE0E2D"/>
<path d="M37.949 23.9999L36.1911 13.7579L37.758 12.3057L37.949 23.9999Z" fill="white"/>
<path d="M39.707 13.6049L37.949 23.9998L37.758 11.6177L39.707 13.6049Z" fill="#CE0E2D"/>
<path d="M50.0255 12L39.6688 13.758L38.3694 12.1911L50.0255 12Z" fill="white"/>
<path d="M39.6306 10.2422L50.0255 12.0001L37.5287 12.1912L39.6306 10.2422Z" fill="#CE0E2D"/>
</svg>
