<svg width="110" height="42" viewBox="0 0 110 42" fill="none" xmlns="http://www.w3.org/2000/svg">
<path d="M74.1793 29.939H68.2841V5.39009L74.1793 15.2897V29.939ZM83.7227 29.9123L68.3369 3.81575H73.9414L89.3271 29.9123H83.7227ZM83.5112 3.81575H89.4064V28.3647L83.5112 18.4651V3.81575Z" fill="black"/>
<path d="M67.676 17.291C67.676 24.629 61.8601 30.5794 54.696 30.5794C47.5318 30.5794 41.7159 24.629 41.7159 17.291C41.7159 9.95299 47.5318 4.00254 54.696 4.00254C61.8601 4.00254 67.676 9.9263 67.676 17.291ZM54.696 9.81957C50.6777 9.81957 47.4261 13.155 47.4261 17.2643C47.4261 21.3736 50.6777 24.709 54.696 24.709C58.7143 24.709 61.9659 21.3736 61.9659 17.2643C61.9659 13.155 58.6878 9.81957 54.696 9.81957Z" fill="black"/>
<path d="M5.89522 19.4257H0V29.939H5.89522V19.4257Z" fill="black"/>
<path d="M18.5316 6.67089C16.9719 4.69631 14.434 3.70901 10.9709 3.70901H6.82048V8.53875L10.9709 8.59211C12.7686 8.6188 13.8789 9.65946 14.3019 11.7141V21.9606C13.9053 23.9886 12.795 25.0292 10.9709 25.0826H6.82048V29.9123H10.9709C14.4605 29.9123 16.9719 28.925 18.5316 26.9504C19.6419 25.2427 20.1971 23.4816 20.1971 21.6404V11.9809C20.1971 10.1398 19.6419 8.35196 18.5316 6.67089Z" fill="black"/>
<path d="M27.4405 29.939H21.5717V3.76239H27.467V29.939H27.4405ZM39.2574 18.1982C39.7068 18.6785 40.1562 19.3456 40.5792 20.2529C40.7643 20.4396 40.9229 21.2135 41.055 22.5743L41.2401 23.5083C41.6366 25.9898 41.9803 27.5642 42.2447 28.2046C42.4033 28.7116 42.7734 29.2719 43.355 29.939H37.1954C36.931 29.9123 36.5874 29.1652 36.0851 27.6709C35.9793 27.4841 35.6621 25.7497 35.1598 22.4676C34.9483 21.6938 34.4461 21.0801 33.6794 20.5997C32.9656 20.3329 31.1944 20.2262 28.3658 20.2262V15.5032H33.0714C34.9219 14.8361 35.8207 13.6086 35.8207 11.8208V11.3672C35.4242 9.41931 34.3139 8.40534 32.4898 8.32529H28.3394V3.68234H32.4898C35.9793 3.68234 38.4908 4.64295 40.0505 6.53748C41.1608 8.16518 41.7159 9.87294 41.7159 11.6607V12.0076C41.7159 14.0356 41.1344 15.8501 39.9712 17.371C39.7861 17.6912 39.5482 17.9581 39.2574 18.1982Z" fill="black"/>
<path d="M96.8085 29.939H90.9132V3.76239H96.8085V29.939ZM109.947 3.81575V8.6188H97.813V3.81575H109.947ZM108.969 13.7154V18.5184H97.8395V13.7154H108.969ZM110 25.0826V29.8856H97.8659V25.0826H110Z" fill="black"/>
<path d="M64.4773 32.8475C63.8428 32.9276 63.2612 33.2744 62.8118 33.8882C62.2831 34.5819 61.9923 35.4358 61.9923 36.4231C61.9923 37.4104 62.2567 38.2376 62.8118 38.9314C63.2877 39.5451 63.8428 39.892 64.4773 39.972V42C63.1026 41.9466 61.9394 41.413 60.9613 40.3723C59.9303 39.2783 59.4016 37.9708 59.4016 36.4231C59.4016 34.8755 59.9303 33.5413 60.9613 32.4473C61.9394 31.4066 63.1026 30.8729 64.4773 30.8196V32.8475ZM66.6979 33.8615C66.1956 33.1944 65.5876 32.8475 64.8474 32.8208V30.7662C66.2221 30.8196 67.4117 31.3532 68.4162 32.3939C68.9185 32.9276 69.3151 33.5146 69.553 34.155L67.3588 35.249C67.2531 34.7687 67.0416 34.2884 66.6979 33.8615ZM68.4427 40.3456C67.4381 41.3863 66.2485 41.9466 64.8738 42V39.972C65.5876 39.9454 66.1956 39.5718 66.7243 38.9314C66.9887 38.6112 67.1738 38.2376 67.3059 37.864L69.4473 38.9847C69.1829 39.465 68.8392 39.9187 68.4427 40.3456Z" fill="#6F7271"/>
<path d="M72.4609 42H69.9495V30.7929H72.4609V42Z" fill="#6F7271"/>
<path d="M76.0298 42H73.5184V30.7929H76.0298V42ZM81.1055 36.9568C81.2905 37.1703 81.502 37.4638 81.6606 37.8373C81.7399 37.9174 81.7928 38.2643 81.8721 38.8246L81.9514 39.2249C82.1365 40.2922 82.2687 40.9593 82.3744 41.2262C82.4537 41.4396 82.6123 41.6798 82.8503 41.9733H80.2067C80.1009 41.9733 79.9423 41.6531 79.7308 41.0127C79.6779 40.9326 79.5458 40.1855 79.3343 38.798C79.2285 38.4778 79.0435 38.2109 78.6998 37.9974C78.3826 37.8907 77.6424 37.8373 76.4263 37.8373V35.8094H78.4355C79.2285 35.5159 79.6251 35.0089 79.6251 34.2351V34.0483C79.44 33.2211 78.9642 32.7675 78.1975 32.7408H76.4263V30.7395H78.1975C79.6779 30.7395 80.7618 31.1398 81.4227 31.967C81.8986 32.6607 82.1365 33.3812 82.1365 34.155V34.3151C82.1365 35.1957 81.8986 35.9428 81.3963 36.6099C81.317 36.7433 81.2112 36.8501 81.1055 36.9568Z" fill="#6F7271"/>
<path d="M87.503 32.8475C86.8686 32.9276 86.287 33.2744 85.8376 33.8882C85.3088 34.5819 85.018 35.4358 85.018 36.4231C85.018 37.4104 85.2824 38.2376 85.8376 38.9314C86.3134 39.5451 86.8686 39.892 87.503 39.972V42C86.1283 41.9466 84.9652 41.413 83.987 40.3723C82.956 39.2783 82.4273 37.9708 82.4273 36.4231C82.4273 34.8755 82.956 33.5413 83.987 32.4473C84.9652 31.4066 86.1283 30.8729 87.503 30.8196V32.8475ZM89.7501 33.8615C89.2478 33.1944 88.6398 32.8475 87.8996 32.8208V30.7662C89.2742 30.8196 90.4638 31.3532 91.4684 32.3939C91.9707 32.9276 92.3672 33.5146 92.6052 34.155L90.411 35.249C90.3052 34.7687 90.0673 34.2884 89.7501 33.8615ZM91.4949 40.3456C90.4903 41.3863 89.3007 41.9466 87.926 42V39.972C88.6398 39.9454 89.2478 39.5718 89.7765 38.9314C90.0409 38.6112 90.2259 38.2376 90.3581 37.864L92.4994 38.9847C92.2086 39.465 91.8914 39.9187 91.4949 40.3456Z" fill="#6F7271"/>
<path d="M95.5131 42H93.0017V30.7929H95.5131V42ZM101.25 39.9187V41.9733H96.0683V39.9187H101.25Z" fill="#6F7271"/>
<path d="M104.263 42H101.752V30.7929H104.263V42ZM109.894 30.8196V32.8742H104.686V30.8196H109.894ZM109.471 35.0356V37.0902H104.713V35.0356H109.471ZM109.921 39.9187V41.9733H104.739V39.9187H109.921Z" fill="#6F7271"/>
<path d="M0.0264587 14.2757H1.13677V18.6785H0.0264587V14.2757ZM6.05386 15.7967V17.1309H1.37469V15.7967H6.05386Z" fill="#6F7271"/>
<path d="M6.05383 12.4879V13.8221H0V12.4879H6.05383ZM2.32636 10.1398H3.43667V12.2745H2.32636V10.1398ZM6.05383 8.53876V9.87294H0V8.53876H6.05383Z" fill="#6F7271"/>
<path d="M6.05383 6.75095V8.08513H0V6.75095H6.05383ZM0.026436 3.76239H1.13675V6.53749H0.026436V3.76239ZM2.29993 3.97586H3.41024V6.5108H2.29993V3.97586ZM4.94352 3.73571H6.05383V6.5108H4.94352V3.73571Z" fill="#6F7271"/>
<path d="M47.664 24.709L52.4754 18.0648L53.9294 18.2783L54.0087 18.2249V18.3049H54.088L54.0351 18.385L54.2466 19.8526L47.664 24.709Z" fill="#CE0E2D"/>
<path d="M52.5283 18.2249L53.8236 18.4117L48.2192 24.0419L52.5283 18.2249Z" fill="white"/>
<path d="M55.2247 14.9428L61.8337 10.0597L56.9959 16.7306L55.5419 16.5171L55.4626 16.5705V16.4905L55.3833 16.4638L55.4362 16.4104L55.2247 14.9428Z" fill="#CE0E2D"/>
<path d="M56.943 16.5705L55.6477 16.3837L61.2521 10.7535L56.943 16.5705Z" fill="white"/>
<path d="M55.5419 16.4905L55.4626 16.4638L55.5155 16.4104L55.4626 16.4638L55.5419 16.4905Z" fill="white"/>
<path d="M55.6212 16.5171L55.5419 16.5705L55.6212 16.5171Z" fill="#BCBEC0"/>
<path d="M53.9029 14.9428L53.665 16.4104L53.7443 16.4905H53.665L53.6385 16.5705L53.5857 16.5171L52.1053 16.7306L47.2939 10.0864L53.9029 14.9428Z" fill="#CE0E2D"/>
<path d="M53.7443 15.0228L53.5592 16.3037L47.9813 10.6734L53.7443 15.0228Z" fill="white"/>
<path d="M55.4891 18.2783L55.4097 18.2249L55.4891 18.1982L55.5155 18.1182L55.5684 18.1982L57.0488 17.9581L61.8601 24.629L55.2511 19.7459L55.4891 18.2783Z" fill="#CE0E2D"/>
<path d="M55.4098 19.6925L55.5948 18.385L61.1992 24.0419L55.4098 19.6925Z" fill="white"/>
<path d="M54.6696 0L57.1545 14.8895L54.9075 17.0241L54.6696 0Z" fill="white"/>
<path d="M52.1053 15.1563L54.6695 0L54.9339 18.0381L52.1053 15.1563Z" fill="#CE0E2D"/>
<path d="M37.2218 17.4511L52.1581 14.8895L54.088 17.2109L37.2218 17.4511Z" fill="white"/>
<path d="M52.2375 20.0394L37.2218 17.4511L55.2512 17.1842L52.2375 20.0394Z" fill="#CE0E2D"/>
<path d="M54.7224 34.9288L52.211 20.0394L54.4581 17.9047L54.7224 34.9288Z" fill="white"/>
<path d="M57.2603 19.7726L54.7224 34.9289L54.4316 16.8907L57.2603 19.7726Z" fill="#CE0E2D"/>
<path d="M72.1437 17.4778L57.2074 20.0394L55.304 17.7179L72.1437 17.4778Z" fill="white"/>
<path d="M57.1545 14.8895L72.1437 17.4778L54.1144 17.7446L57.1545 14.8895Z" fill="#CE0E2D"/>
</svg>
