<svg width="134" height="39" viewBox="0 0 134 39" fill="none" xmlns="http://www.w3.org/2000/svg">
<path d="M0.32866 34.6573C0.141549 34.4846 0.025845 34.2496 0.00383669 33.9977C-0.0181716 33.7458 0.0550738 33.4948 0.209463 33.293C0.363853 33.0913 0.588461 32.953 0.840008 32.9049C1.09156 32.8568 1.35224 32.9023 1.57184 33.0325C2.54666 33.8495 3.78366 34.2986 5.06262 34.2998C6.41283 34.2998 7.26906 33.6662 7.26906 32.7563C7.26906 31.879 6.76685 31.4078 4.45338 30.8797C1.80237 30.2461 0.336895 29.4743 0.336895 27.2078C0.336895 25.1037 2.11522 23.6414 4.59334 23.6414C5.99845 23.6147 7.37796 24.0145 8.54518 24.7869C8.69485 24.8759 8.8179 25.0025 8.90179 25.1538C8.98568 25.3051 9.02739 25.4756 9.02269 25.648C9.02161 25.7803 8.99414 25.9111 8.94183 26.0329C8.88953 26.1547 8.81343 26.2651 8.71786 26.3579C8.6223 26.4507 8.50915 26.524 8.38487 26.5736C8.2606 26.6233 8.12763 26.6483 7.99356 26.6472C7.79324 26.6497 7.59631 26.5961 7.42549 26.4929C6.58563 25.9077 5.58825 25.5825 4.56041 25.5586C3.27607 25.5586 2.5351 26.2085 2.5351 27.0128C2.5351 27.9633 3.10318 28.3857 5.50721 28.9463C8.14176 29.5799 9.49197 30.506 9.49197 32.5451C9.49197 34.8441 7.65601 36.2171 5.03793 36.2171C3.33732 36.2207 1.68265 35.6726 0.32866 34.6573Z" fill="#1B1B1B"/>
<path d="M15.6007 34.9415V24.8192C15.5985 24.6756 15.6255 24.5331 15.6802 24.4C15.7348 24.267 15.816 24.1461 15.9189 24.0446C16.0218 23.943 16.1443 23.8629 16.2792 23.809C16.414 23.7551 16.5585 23.7284 16.704 23.7306H23.949C24.2082 23.7327 24.4561 23.8353 24.6394 24.0161C24.8226 24.1969 24.9266 24.4416 24.9287 24.6973C24.9287 24.9537 24.8255 25.1996 24.6418 25.3809C24.458 25.5622 24.2088 25.6641 23.949 25.6641H17.7907V28.8648H23.1504C23.283 28.8658 23.414 28.8931 23.5357 28.9451C23.6573 28.9971 23.7671 29.0727 23.8586 29.1675C23.95 29.2623 24.0211 29.3742 24.0678 29.4967C24.1144 29.6191 24.1356 29.7496 24.1301 29.8803C24.129 30.0062 24.1028 30.1307 24.053 30.2466C24.0032 30.3625 23.9307 30.4675 23.8398 30.5558C23.7488 30.6441 23.6411 30.7138 23.5228 30.761C23.4045 30.8082 23.278 30.8319 23.1504 30.8308H17.7907V34.1291H24.0395C24.2987 34.1312 24.5467 34.2337 24.7299 34.4146C24.9132 34.5954 25.0171 34.8401 25.0193 35.0958C25.0193 35.3522 24.916 35.5981 24.7323 35.7794C24.5486 35.9607 24.2994 36.0626 24.0395 36.0626H16.704C16.5556 36.0649 16.4083 36.0373 16.2712 35.9814C16.1341 35.9254 16.0101 35.8424 15.9067 35.7374C15.8033 35.6323 15.7229 35.5075 15.6702 35.3707C15.6176 35.2338 15.594 35.0877 15.6007 34.9415Z" fill="#1B1B1B"/>
<path d="M30.3543 34.6247L35.0059 24.4375C35.1085 24.176 35.2896 23.9518 35.5251 23.7949C35.7606 23.6381 36.0391 23.5561 36.3232 23.5601H36.4302C36.7179 23.5491 37.0017 23.628 37.2412 23.7856C37.4807 23.9431 37.6636 24.1713 37.764 24.4375L42.3909 34.6247C42.4705 34.7636 42.5129 34.9202 42.5144 35.0797C42.5177 35.2151 42.4935 35.3497 42.4433 35.4758C42.393 35.6018 42.3178 35.7166 42.2219 35.8135C42.126 35.9104 42.0114 35.9874 41.8849 36.04C41.7584 36.0925 41.6225 36.1196 41.4853 36.1195C41.2492 36.12 41.0189 36.0473 40.8269 35.9117C40.6349 35.7762 40.4908 35.5846 40.415 35.364L39.4024 33.065H33.3182L32.2644 35.4371C32.1888 35.6409 32.0506 35.8163 31.869 35.9386C31.6874 36.061 31.4715 36.1242 31.2517 36.1195C31.1184 36.1206 30.9862 36.0955 30.8629 36.0457C30.7395 35.9958 30.6275 35.9223 30.5332 35.8293C30.4389 35.7363 30.3644 35.6257 30.3139 35.504C30.2634 35.3822 30.238 35.2518 30.239 35.1203C30.2379 34.9485 30.2774 34.7788 30.3543 34.6247ZM38.505 31.1477L36.315 26.176L34.125 31.1477H38.505Z" fill="#1B1B1B"/>
<path d="M48.4093 24.8192C48.4071 24.6756 48.4341 24.5331 48.4888 24.4C48.5434 24.267 48.6246 24.1461 48.7275 24.0446C48.8304 23.943 48.9529 23.8629 49.0877 23.809C49.2226 23.7551 49.367 23.7284 49.5125 23.7306H53.0527C56.9716 23.7306 59.6391 26.3871 59.6391 29.8397C59.6391 33.3005 56.9304 35.9894 53.0527 35.9894H49.5125C49.367 35.9916 49.2226 35.965 49.0877 35.911C48.9529 35.8571 48.8304 35.777 48.7275 35.6755C48.6246 35.574 48.5434 35.4531 48.4888 35.32C48.4341 35.1869 48.4071 35.0444 48.4093 34.9008V24.8192ZM53.0527 34.056C53.6195 34.0927 54.1877 34.0117 54.7207 33.8181C55.2537 33.6246 55.7397 33.3228 56.147 32.9323C56.5544 32.5418 56.8742 32.0713 57.0858 31.5511C57.2973 31.031 57.3958 30.4729 57.375 29.9128C57.3928 29.3517 57.2925 28.793 57.0805 28.2721C56.8685 27.7511 56.5494 27.2792 56.1432 26.8861C55.7371 26.493 55.2528 26.1872 54.7208 25.988C54.1889 25.7889 53.6209 25.7007 53.0527 25.7291H50.5828V34.0641L53.0527 34.056Z" fill="#1B1B1B"/>
<path d="M65.8881 34.9415V24.8192C65.8859 24.6756 65.9129 24.5331 65.9675 24.4C66.0222 24.267 66.1034 24.1461 66.2063 24.0446C66.3092 23.943 66.4317 23.8629 66.5665 23.809C66.7014 23.7551 66.8458 23.7284 66.9913 23.7306H74.2363C74.4955 23.7327 74.7435 23.8353 74.9267 24.0161C75.11 24.1969 75.2139 24.4416 75.2161 24.6973C75.2161 24.9537 75.1128 25.1996 74.9291 25.3809C74.7454 25.5622 74.4962 25.6641 74.2363 25.6641H68.0781V28.8648H73.4377C73.5703 28.8658 73.7014 28.8931 73.823 28.9451C73.9447 28.9971 74.0545 29.0727 74.1459 29.1675C74.2373 29.2623 74.3085 29.3742 74.3551 29.4967C74.4018 29.6191 74.423 29.7496 74.4175 29.8803C74.4164 30.0062 74.3902 30.1307 74.3404 30.2466C74.2905 30.3625 74.2181 30.4675 74.1271 30.5558C74.0361 30.6441 73.9284 30.7138 73.8101 30.761C73.6919 30.8082 73.5653 30.8319 73.4377 30.8308H68.0781V34.1291H74.3269C74.5861 34.1312 74.834 34.2337 75.0173 34.4146C75.2006 34.5954 75.3045 34.8401 75.3066 35.0958C75.3066 35.3522 75.2034 35.5981 75.0197 35.7794C74.8359 35.9607 74.5867 36.0626 74.3269 36.0626H66.9913C66.843 36.0649 66.6957 36.0373 66.5586 35.9814C66.4215 35.9254 66.2974 35.8424 66.194 35.7374C66.0907 35.6323 66.0102 35.5075 65.9576 35.3707C65.905 35.2338 65.8813 35.0877 65.8881 34.9415Z" fill="#1B1B1B"/>
<path d="M84.9882 35.3234L80.6247 25.2093C80.5458 25.0498 80.5036 24.875 80.5012 24.6975C80.5023 24.5563 80.5318 24.4168 80.588 24.287C80.6442 24.1572 80.7261 24.0398 80.8287 23.9415C80.9314 23.8432 81.0528 23.7661 81.186 23.7145C81.3192 23.663 81.4614 23.6382 81.6044 23.6414C81.8556 23.6368 82.1012 23.7138 82.3036 23.8607C82.5059 24.0075 82.6537 24.2159 82.7241 24.4538L86.3384 33.2844L89.9856 24.3482C90.0699 24.1408 90.2155 23.9632 90.4035 23.8386C90.5914 23.714 90.813 23.6481 91.0394 23.6495C91.3183 23.6495 91.586 23.7577 91.7847 23.9507C91.9834 24.1437 92.0972 24.4061 92.1015 24.6812C92.0951 24.8382 92.0588 24.9925 91.9945 25.1362L87.6227 35.3234C87.5338 35.5872 87.3605 35.8153 87.1289 35.9735C86.8973 36.1318 86.6199 36.2115 86.3384 36.2008H86.2149C85.9432 36.1993 85.6788 36.1139 85.4587 35.9565C85.2387 35.7992 85.0742 35.5778 84.9882 35.3234Z" fill="#1B1B1B"/>
<path d="M40.7023 11.4673C40.8959 11.4673 41.0663 11.4417 41.2133 11.3903C41.3626 11.339 41.4874 11.2678 41.5878 11.1768C41.6904 11.0835 41.7674 10.9727 41.8188 10.8443C41.8701 10.716 41.8958 10.5748 41.8958 10.4208C41.8958 10.1012 41.7966 9.85149 41.5983 9.67182C41.4023 9.49216 41.1036 9.40232 40.7023 9.40232H39.8973V11.4673H40.7023ZM40.7023 8.86682C41.0196 8.86682 41.2949 8.90416 41.5283 8.97882C41.7639 9.05116 41.9588 9.15499 42.1128 9.29032C42.2668 9.42566 42.3811 9.58899 42.4558 9.78032C42.5328 9.97166 42.5713 10.1852 42.5713 10.4208C42.5713 10.6542 42.5304 10.8677 42.4488 11.0613C42.3671 11.255 42.2469 11.4218 42.0883 11.5618C41.9319 11.7018 41.7371 11.8115 41.5038 11.8908C41.2728 11.9678 41.0056 12.0063 40.7023 12.0063H39.8973V13.8823H39.2218V8.86682H40.7023ZM48.7599 11.3763C48.7599 11.752 48.7004 12.0973 48.5814 12.4123C48.4624 12.725 48.2944 12.9945 48.0774 13.2208C47.8604 13.4472 47.599 13.6233 47.2934 13.7493C46.99 13.873 46.654 13.9348 46.2854 13.9348C45.9167 13.9348 45.5807 13.873 45.2774 13.7493C44.974 13.6233 44.7139 13.4472 44.4969 13.2208C44.2799 12.9945 44.1119 12.725 43.9929 12.4123C43.8739 12.0973 43.8144 11.752 43.8144 11.3763C43.8144 11.0007 43.8739 10.6565 43.9929 10.3438C44.1119 10.0288 44.2799 9.75816 44.4969 9.53182C44.7139 9.30316 44.974 9.12582 45.2774 8.99982C45.5807 8.87382 45.9167 8.81082 46.2854 8.81082C46.654 8.81082 46.99 8.87382 47.2934 8.99982C47.599 9.12582 47.8604 9.30316 48.0774 9.53182C48.2944 9.75816 48.4624 10.0288 48.5814 10.3438C48.7004 10.6565 48.7599 11.0007 48.7599 11.3763ZM48.0634 11.3763C48.0634 11.0683 48.0214 10.7918 47.9374 10.5468C47.8534 10.3018 47.7344 10.0953 47.5804 9.92732C47.4264 9.75699 47.2397 9.62632 47.0204 9.53532C46.801 9.44432 46.556 9.39882 46.2854 9.39882C46.017 9.39882 45.7732 9.44432 45.5539 9.53532C45.3345 9.62632 45.1467 9.75699 44.9904 9.92732C44.8364 10.0953 44.7174 10.3018 44.6334 10.5468C44.5494 10.7918 44.5074 11.0683 44.5074 11.3763C44.5074 11.6843 44.5494 11.9608 44.6334 12.2058C44.7174 12.4485 44.8364 12.655 44.9904 12.8253C45.1467 12.9933 45.3345 13.1228 45.5539 13.2138C45.7732 13.3025 46.017 13.3468 46.2854 13.3468C46.556 13.3468 46.801 13.3025 47.0204 13.2138C47.2397 13.1228 47.4264 12.9933 47.5804 12.8253C47.7344 12.655 47.8534 12.4485 47.9374 12.2058C48.0214 11.9608 48.0634 11.6843 48.0634 11.3763ZM56.8557 8.86682L55.2912 13.8823H54.6822L53.4117 10.0568C53.4 10.0195 53.3883 9.97982 53.3767 9.93782C53.3673 9.89582 53.3568 9.85149 53.3452 9.80482C53.3335 9.85149 53.3218 9.89582 53.3102 9.93782C53.2985 9.97982 53.2868 10.0195 53.2752 10.0568L51.9977 13.8823H51.3887L49.8242 8.86682H50.3877C50.4483 8.86682 50.4985 8.88199 50.5382 8.91232C50.5802 8.94266 50.607 8.98116 50.6187 9.02782L51.6547 12.5138C51.671 12.5768 51.6862 12.6445 51.7002 12.7168C51.7165 12.7892 51.7317 12.8662 51.7457 12.9478C51.762 12.8662 51.7783 12.7892 51.7947 12.7168C51.8133 12.6422 51.8332 12.5745 51.8542 12.5138L53.0337 9.02782C53.0477 8.98816 53.0745 8.95199 53.1142 8.91932C53.1562 8.88432 53.2063 8.86682 53.2647 8.86682H53.4607C53.5213 8.86682 53.5703 8.88199 53.6077 8.91232C53.645 8.94266 53.673 8.98116 53.6917 9.02782L54.8677 12.5138C54.8887 12.5745 54.9073 12.6398 54.9237 12.7098C54.9423 12.7798 54.9598 12.8533 54.9762 12.9303C54.9878 12.8533 55.0007 12.7798 55.0147 12.7098C55.0287 12.6398 55.0438 12.5745 55.0602 12.5138L56.0997 9.02782C56.1113 8.98582 56.137 8.94849 56.1767 8.91582C56.2187 8.88316 56.2688 8.86682 56.3272 8.86682H56.8557ZM61.3962 13.3293L61.3927 13.8823H58.3022V8.86682H61.3927V9.41982H58.9812V11.0858H60.9342V11.6178H58.9812V13.3293H61.3962ZM64.4318 11.2958C64.6278 11.2958 64.8005 11.2725 64.9498 11.2258C65.1015 11.1768 65.2275 11.1092 65.3278 11.0228C65.4305 10.9342 65.5075 10.8292 65.5588 10.7078C65.6101 10.5865 65.6358 10.4523 65.6358 10.3053C65.6358 10.0067 65.5378 9.78149 65.3418 9.62982C65.1458 9.47816 64.8518 9.40232 64.4598 9.40232H63.7178V11.2958H64.4318ZM66.7488 13.8823H66.1468C66.0231 13.8823 65.9321 13.8345 65.8738 13.7388L64.5718 11.9468C64.5321 11.8908 64.489 11.8512 64.4423 11.8278C64.398 11.8022 64.328 11.7893 64.2323 11.7893H63.7178V13.8823H63.0423V8.86682H64.4598C64.7771 8.86682 65.0513 8.89949 65.2823 8.96482C65.5133 9.02782 65.7035 9.11999 65.8528 9.24132C66.0045 9.36266 66.1165 9.50966 66.1888 9.68232C66.2611 9.85266 66.2973 10.044 66.2973 10.2563C66.2973 10.4337 66.2693 10.5993 66.2133 10.7533C66.1573 10.9073 66.0756 11.0462 65.9683 11.1698C65.8633 11.2912 65.7338 11.395 65.5798 11.4813C65.4281 11.5677 65.2555 11.633 65.0618 11.6773C65.1481 11.7263 65.2228 11.7975 65.2858 11.8908L66.7488 13.8823ZM71.225 13.3293L71.2215 13.8823H68.131V8.86682H71.2215V9.41982H68.81V11.0858H70.763V11.6178H68.81V13.3293H71.225ZM77.218 11.3763C77.218 11.752 77.1585 12.0938 77.0395 12.4018C76.9205 12.7098 76.7525 12.9735 76.5355 13.1928C76.3185 13.4122 76.0572 13.5825 75.7515 13.7038C75.4482 13.8228 75.1122 13.8823 74.7435 13.8823H72.871V8.86682H74.7435C75.1122 8.86682 75.4482 8.92749 75.7515 9.04882C76.0572 9.16782 76.3185 9.33816 76.5355 9.55982C76.7525 9.77916 76.9205 10.0428 77.0395 10.3508C77.1585 10.6588 77.218 11.0007 77.218 11.3763ZM76.5215 11.3763C76.5215 11.0683 76.4795 10.793 76.3955 10.5503C76.3115 10.3077 76.1925 10.1023 76.0385 9.93432C75.8845 9.76632 75.6978 9.63799 75.4785 9.54932C75.2592 9.46066 75.0142 9.41632 74.7435 9.41632H73.55V13.3328H74.7435C75.0142 13.3328 75.2592 13.2885 75.4785 13.1998C75.6978 13.1112 75.8845 12.984 76.0385 12.8183C76.1925 12.6503 76.3115 12.445 76.3955 12.2023C76.4795 11.9597 76.5215 11.6843 76.5215 11.3763ZM83.1477 13.3433C83.3414 13.3433 83.5082 13.3212 83.6482 13.2768C83.7882 13.2325 83.9025 13.1707 83.9912 13.0913C84.0822 13.0097 84.1487 12.914 84.1907 12.8043C84.2327 12.6923 84.2537 12.5698 84.2537 12.4368C84.2537 12.1778 84.1615 11.9737 83.9772 11.8243C83.7929 11.6727 83.5164 11.5968 83.1477 11.5968H82.0627V13.3433H83.1477ZM82.0627 9.40232V11.1138H82.9587C83.15 11.1138 83.3157 11.0928 83.4557 11.0508C83.598 11.0088 83.7147 10.9505 83.8057 10.8758C83.899 10.8012 83.9679 10.7113 84.0122 10.6063C84.0565 10.499 84.0787 10.3823 84.0787 10.2563C84.0787 9.95999 83.99 9.74416 83.8127 9.60882C83.6354 9.47116 83.36 9.40232 82.9867 9.40232H82.0627ZM82.9867 8.86682C83.2947 8.86682 83.5595 8.89716 83.7812 8.95782C84.0052 9.01849 84.1884 9.10482 84.3307 9.21682C84.4754 9.32882 84.5815 9.46649 84.6492 9.62982C84.7169 9.79082 84.7507 9.97282 84.7507 10.1758C84.7507 10.2995 84.7309 10.4185 84.6912 10.5328C84.6539 10.6448 84.5967 10.7498 84.5197 10.8478C84.4427 10.9458 84.3447 11.0345 84.2257 11.1138C84.109 11.1908 83.9714 11.2538 83.8127 11.3028C84.1814 11.3728 84.4579 11.5047 84.6422 11.6983C84.8289 11.8897 84.9222 12.1417 84.9222 12.4543C84.9222 12.6667 84.8825 12.8603 84.8032 13.0353C84.7262 13.2103 84.6119 13.3608 84.4602 13.4868C84.3109 13.6128 84.1265 13.7108 83.9072 13.7808C83.6879 13.8485 83.4382 13.8823 83.1582 13.8823H81.3872V8.86682H82.9867ZM88.3315 11.8838V13.8823H87.6525V11.8838L85.815 8.86682H86.41C86.4707 8.86682 86.5185 8.88199 86.5535 8.91232C86.5885 8.94032 86.6189 8.97766 86.6445 9.02432L87.7925 10.9738C87.8345 11.0555 87.873 11.1325 87.908 11.2048C87.943 11.2748 87.9734 11.346 87.999 11.4183C88.0247 11.346 88.0539 11.2748 88.0865 11.2048C88.1192 11.1325 88.1554 11.0555 88.195 10.9738L89.3395 9.02432C89.3605 8.98466 89.3897 8.94849 89.427 8.91582C89.4644 8.88316 89.5122 8.86682 89.5705 8.86682H90.169L88.3315 11.8838Z" fill="#1B1B1B"/>
<path d="M106.815 16.2455C106.722 16.2441 106.631 16.2189 106.551 16.1724L99.8826 12.3542C99.8024 12.3076 99.7359 12.241 99.6896 12.1613C99.6434 12.0815 99.6191 11.9912 99.6191 11.8993C99.6191 11.8074 99.6434 11.7171 99.6896 11.6373C99.7359 11.5575 99.8024 11.491 99.8826 11.4443L106.543 7.65864C106.624 7.61229 106.717 7.58789 106.811 7.58789C106.905 7.58789 106.997 7.61229 107.078 7.65864L113.739 11.4443C113.819 11.491 113.885 11.5575 113.932 11.6373C113.978 11.7171 114.002 11.8074 114.002 11.8993C114.002 11.9912 113.978 12.0815 113.932 12.1613C113.885 12.241 113.819 12.3076 113.739 12.3542L107.078 16.1562C107 16.2084 106.909 16.2392 106.815 16.2455ZM101.225 11.8993L106.815 15.0919L112.405 11.8993L106.815 8.72286L101.225 11.8993Z" fill="#1B1B1B"/>
<path d="M106.815 38.9914C106.722 38.99 106.631 38.9648 106.551 38.9183L99.8827 35.1245C99.8025 35.0778 99.736 35.0113 99.6897 34.9315C99.6435 34.8517 99.6192 34.7614 99.6192 34.6695V11.9228C99.6174 11.8273 99.6419 11.733 99.69 11.6501C99.7382 11.5672 99.8083 11.4988 99.8928 11.4521C99.9773 11.4054 100.073 11.3822 100.17 11.385C100.267 11.3878 100.361 11.4164 100.443 11.4679L107.103 15.2699C107.183 15.3165 107.25 15.383 107.296 15.4628C107.342 15.5426 107.366 15.6329 107.366 15.7248V38.4715C107.366 38.6115 107.31 38.7459 107.21 38.8449C107.109 38.9439 106.973 38.9995 106.831 38.9995L106.815 38.9914ZM100.69 34.369L106.28 37.5535V16.001L100.69 12.8083V34.369Z" fill="#1B1B1B"/>
<path d="M106.815 23.8089C106.673 23.8089 106.537 23.7533 106.436 23.6543C106.336 23.5552 106.28 23.4209 106.28 23.2809V15.7014C106.28 15.6095 106.304 15.5192 106.35 15.4394C106.396 15.3596 106.463 15.2931 106.543 15.2464L113.203 11.4445C113.285 11.393 113.379 11.3643 113.476 11.3616C113.573 11.3588 113.669 11.382 113.753 11.4287C113.838 11.4753 113.908 11.5438 113.956 11.6267C114.004 11.7096 114.029 11.8039 114.027 11.8994V19.4952C114.027 19.5871 114.002 19.6774 113.956 19.7572C113.91 19.837 113.844 19.9035 113.763 19.9501L107.078 23.7358C106.998 23.7823 106.907 23.8075 106.815 23.8089ZM107.35 16.0019V22.3629L112.94 19.1784V12.8093L107.35 16.0019Z" fill="#1B1B1B"/>
<path d="M106.815 38.992C106.673 38.992 106.537 38.9363 106.436 38.8373C106.336 38.7383 106.28 38.604 106.28 38.4639V30.8682C106.278 30.7726 106.302 30.6784 106.35 30.5955C106.399 30.5125 106.469 30.4441 106.553 30.3974C106.638 30.3507 106.733 30.3275 106.83 30.3303C106.927 30.3331 107.021 30.3617 107.103 30.4132L113.763 34.2071C113.844 34.2537 113.91 34.3202 113.956 34.4C114.003 34.4798 114.027 34.5701 114.027 34.662C114.027 34.7539 114.003 34.8442 113.956 34.924C113.91 35.0038 113.844 35.0703 113.763 35.1169L107.078 38.9189C106.998 38.9654 106.908 38.9906 106.815 38.992ZM107.35 31.7943V37.5541L112.405 34.6701L107.35 31.7943Z" fill="#1B1B1B"/>
<path d="M113.467 35.1979C113.374 35.1965 113.283 35.1713 113.203 35.1248L106.543 31.331C106.461 31.2836 106.394 31.2158 106.348 31.1345C106.302 31.0532 106.278 30.9612 106.279 30.8679V23.2803C106.278 23.1847 106.302 23.0905 106.35 23.0076C106.398 22.9247 106.468 22.8562 106.553 22.8095C106.637 22.7628 106.733 22.7396 106.83 22.7424C106.927 22.7452 107.021 22.7739 107.103 22.8253L113.763 26.6192C113.843 26.6658 113.91 26.7323 113.956 26.8121C114.002 26.8919 114.027 26.9822 114.027 27.0741V34.678C114.027 34.818 113.97 34.9524 113.87 35.0514C113.77 35.1504 113.633 35.206 113.491 35.206L113.467 35.1979ZM107.341 30.5755L112.932 33.76V27.3747L107.341 24.1901V30.5755Z" fill="#1B1B1B"/>
<path d="M113.467 27.6186C113.374 27.6171 113.283 27.5919 113.203 27.5454L106.543 23.7354C106.463 23.6887 106.396 23.6222 106.35 23.5424C106.304 23.4626 106.279 23.3723 106.279 23.2804C106.279 23.1885 106.304 23.0982 106.35 23.0185C106.396 22.9387 106.463 22.8722 106.543 22.8255L113.203 19.0317C113.285 18.9853 113.377 18.9609 113.471 18.9609C113.565 18.9609 113.657 18.9853 113.738 19.0317L120.399 22.8255C120.479 22.8722 120.546 22.9387 120.592 23.0185C120.638 23.0982 120.662 23.1885 120.662 23.2804C120.662 23.3723 120.638 23.4626 120.592 23.5424C120.546 23.6222 120.479 23.6887 120.399 23.7354L113.738 27.5292C113.658 27.5828 113.564 27.6137 113.467 27.6186ZM107.852 23.2804L113.442 26.465L119.032 23.2804L113.442 20.0959L107.852 23.2804Z" fill="#1B1B1B"/>
<path d="M126.788 20.0151C126.649 20.0152 126.515 19.9618 126.415 19.8662C126.315 19.7707 126.257 19.6405 126.253 19.5033V11.8994C126.251 11.8039 126.275 11.7096 126.324 11.6267C126.372 11.5438 126.442 11.4753 126.526 11.4287C126.611 11.382 126.707 11.3588 126.803 11.3616C126.9 11.3643 126.994 11.393 127.076 11.4445L133.737 15.2464C133.817 15.2931 133.883 15.3596 133.93 15.4394C133.976 15.5192 134 15.6095 134 15.7014C134 15.7933 133.976 15.8836 133.93 15.9633C133.883 16.0431 133.817 16.1096 133.737 16.1563L127.15 19.9176C127.045 19.9922 126.917 20.0269 126.788 20.0151ZM127.323 12.8093V18.5691L132.378 15.6932L127.323 12.8093Z" fill="#1B1B1B"/>
<path d="M113.467 35.1983C113.325 35.1983 113.189 35.1427 113.088 35.0437C112.988 34.9446 112.932 34.8103 112.932 34.6703V27.0745C112.932 26.9826 112.956 26.8923 113.002 26.8125C113.048 26.7327 113.115 26.6662 113.195 26.6196L126.508 19.0319L133.168 15.2462C133.25 15.1948 133.344 15.1661 133.441 15.1633C133.538 15.1605 133.634 15.1837 133.718 15.2304C133.803 15.2771 133.873 15.3456 133.921 15.4285C133.969 15.5114 133.993 15.6056 133.992 15.7012V23.2807C133.992 23.3726 133.967 23.4629 133.921 23.5427C133.875 23.6225 133.808 23.689 133.728 23.7356L113.755 35.109C113.67 35.1654 113.57 35.1965 113.467 35.1983ZM114.002 27.3751V33.7604L132.938 22.9801V16.611L127.084 19.9418L114.002 27.3751Z" fill="#1B1B1B"/>
<path d="M120.127 23.8089C120.035 23.8075 119.944 23.7823 119.864 23.7358L113.203 19.942C113.123 19.8953 113.057 19.8288 113.011 19.749C112.964 19.6693 112.94 19.579 112.94 19.4871V11.8994C112.938 11.8039 112.963 11.7096 113.011 11.6267C113.059 11.5438 113.129 11.4753 113.214 11.4287C113.298 11.382 113.394 11.3588 113.491 11.3616C113.588 11.3643 113.682 11.393 113.763 11.4445L120.424 15.2464C120.504 15.2931 120.571 15.3596 120.617 15.4394C120.663 15.5192 120.687 15.6095 120.687 15.7014V23.2809C120.687 23.4209 120.631 23.5552 120.531 23.6543C120.43 23.7533 120.294 23.8089 120.152 23.8089H120.127ZM114.002 19.1865L119.592 22.371V16.0019L114.002 12.8093V19.1865Z" fill="#1B1B1B"/>
<path d="M120.128 23.8089C119.986 23.8089 119.85 23.7533 119.749 23.6543C119.649 23.5552 119.593 23.4209 119.593 23.2809V15.7014C119.593 15.6095 119.617 15.5192 119.663 15.4394C119.709 15.3596 119.776 15.2931 119.856 15.2464L126.516 11.4445C126.598 11.393 126.692 11.3643 126.789 11.3616C126.886 11.3588 126.982 11.382 127.066 11.4287C127.151 11.4753 127.221 11.5438 127.269 11.6267C127.317 11.7096 127.342 11.8039 127.34 11.8994V19.4952C127.34 19.5871 127.315 19.6774 127.269 19.7572C127.223 19.837 127.157 19.9035 127.076 19.9501L120.416 23.7439C120.328 23.7919 120.228 23.8144 120.128 23.8089ZM120.663 16.0019V22.3629L126.253 19.1784V12.8093L120.663 16.0019Z" fill="#1B1B1B"/>
<path d="M100.154 12.4269C100.012 12.4269 99.8761 12.3713 99.7757 12.2722C99.6754 12.1732 99.619 12.0389 99.619 11.8989V4.31933C99.6172 4.22378 99.6416 4.12953 99.6898 4.04662C99.738 3.96372 99.8081 3.89527 99.8926 3.84857C99.9771 3.80188 100.073 3.77869 100.17 3.78147C100.266 3.78426 100.361 3.81292 100.442 3.8644L107.078 7.65822C107.158 7.70488 107.225 7.77139 107.271 7.85117C107.317 7.93096 107.342 8.02126 107.342 8.11316C107.342 8.20505 107.317 8.29536 107.271 8.37514C107.225 8.45493 107.158 8.52144 107.078 8.56809L100.442 12.3538C100.355 12.4046 100.255 12.4299 100.154 12.4269ZM100.689 5.2292V10.989L105.744 8.12128L100.689 5.2292Z" fill="#1B1B1B"/>
<path d="M120.127 16.2453C120.035 16.2438 119.944 16.2187 119.864 16.1722L113.204 12.354L99.8826 4.77444C99.8024 4.72778 99.7359 4.66128 99.6896 4.58149C99.6434 4.5017 99.6191 4.4114 99.6191 4.3195C99.6191 4.22761 99.6434 4.13731 99.6896 4.05752C99.7359 3.97773 99.8024 3.91122 99.8826 3.86457L106.543 0.0707451C106.624 0.0243991 106.717 0 106.811 0C106.905 0 106.997 0.0243991 107.078 0.0707451L127.051 11.4441C127.132 11.4907 127.198 11.5573 127.244 11.637C127.291 11.7168 127.315 11.8071 127.315 11.899C127.315 11.9909 127.291 12.0812 127.244 12.161C127.198 12.2408 127.132 12.3073 127.051 12.354L120.391 16.1559C120.313 16.2081 120.222 16.239 120.127 16.2453ZM101.225 4.3195L120.16 15.0917L125.751 11.899L106.815 1.13497L101.225 4.3195Z" fill="#1B1B1B"/>
</svg>
