<svg width="148" height="20" viewBox="0 0 148 20" fill="none" xmlns="http://www.w3.org/2000/svg">
<path d="M147 4.73162C146.338 5.02531 145.626 5.22384 144.879 5.3131C145.641 4.85607 146.227 4.13238 146.503 3.27C145.789 3.69324 144.999 4.00054 144.158 4.16613C143.484 3.44842 142.524 3 141.462 3C139.423 3 137.769 4.65336 137.769 6.69277C137.769 6.98221 137.802 7.26406 137.865 7.53437C134.796 7.38032 132.075 5.91016 130.253 3.67588C129.935 4.22129 129.753 4.85565 129.753 5.53244C129.753 6.81367 130.405 7.94401 131.396 8.60625C130.791 8.58706 130.221 8.42094 129.723 8.14433C129.723 8.15973 129.723 8.1752 129.723 8.19077C129.723 9.98001 130.996 11.4725 132.685 11.8119C132.376 11.8962 132.049 11.9415 131.712 11.9415C131.474 11.9415 131.243 11.9183 131.018 11.8751C131.488 13.3422 132.851 14.41 134.467 14.4397C133.203 15.4303 131.611 16.0206 129.881 16.0206C129.583 16.0206 129.289 16.0031 129 15.9689C130.634 17.0168 132.575 17.6281 134.661 17.6281C141.453 17.6281 145.168 12.001 145.168 7.12094C145.168 6.96084 145.164 6.80158 145.157 6.64316C145.879 6.12254 146.505 5.47215 147 4.73162Z" fill="#CE0E2D"/>
<path fill-rule="evenodd" clip-rule="evenodd" d="M90.3625 9.4525V11.6337H93.975C93.83 12.5712 92.8837 14.38 90.3663 14.38C88.195 14.38 86.4225 12.58 86.4225 10.3613C86.4225 8.1425 88.1913 6.3425 90.3625 6.3425C91.6 6.3425 92.4275 6.87 92.9 7.325L94.6275 5.6625C93.5188 4.625 92.0813 4 90.365 4C86.8438 3.99875 84 6.84125 84 10.3613C84 13.8813 86.845 16.7238 90.3625 16.7238C94.0375 16.7238 96.4725 14.1425 96.4725 10.5063C96.4725 10.0888 96.4275 9.76875 96.3725 9.4525H90.3625ZM104 9.4525H102.181V7.63375H100.362V9.4525H98.545V11.27H100.364V13.0888H102.182V11.27H104" fill="#CE0E2D"/>
<path d="M54.0325 1H45.9672C43.2283 1 41 3.22841 41 5.96735V14.0327C41 16.7717 43.2283 19 45.9672 19H54.0325C56.7717 19 59 16.7716 59 14.0327V5.96735C59.0001 3.22841 56.7717 1 54.0325 1ZM57.4031 14.0327C57.4031 15.8911 55.8911 17.403 54.0327 17.403H45.9672C44.1089 17.4031 42.597 15.8911 42.597 14.0327V5.96735C42.597 4.10903 44.1089 2.59705 45.9672 2.59705H54.0325C55.891 2.59705 57.403 4.10903 57.403 5.96735V14.0327H57.4031Z" fill="#CE0E2D"/>
<path d="M50 5.36206C47.4424 5.36206 45.3618 7.44269 45.3618 10.0002C45.3618 12.5576 47.4424 14.6381 50 14.6381C52.5575 14.6381 54.6381 12.5576 54.6381 10.0002C54.6381 7.44269 52.5575 5.36206 50 5.36206ZM50 13.041C48.3232 13.041 46.9589 11.6769 46.9589 10.0001C46.9589 8.3232 48.3231 6.959 50 6.959C51.6769 6.959 53.0411 8.3232 53.0411 10.0001C53.0411 11.6769 51.6768 13.041 50 13.041Z" fill="#CE0E2D"/>
<path d="M54.8328 4.00769C54.5251 4.00769 54.2228 4.13226 54.0055 4.35052C53.7871 4.56772 53.6616 4.8701 53.6616 5.17886C53.6616 5.48666 53.7873 5.78893 54.0055 6.00719C54.2227 6.22439 54.5251 6.35003 54.8328 6.35003C55.1416 6.35003 55.4429 6.22439 55.6611 6.00719C55.8794 5.78893 56.004 5.48656 56.004 5.17886C56.004 4.8701 55.8794 4.56772 55.6611 4.35052C55.4439 4.13226 55.1416 4.00769 54.8328 4.00769Z" fill="#CE0E2D"/>
<path d="M6.96044 5.47362C6.96044 5.36141 6.97602 5.11909 7.00719 4.74819C7.04069 4.37652 7.18094 3.98771 7.43262 3.57941C7.68196 3.17268 8.08636 2.80724 8.64893 2.48388C9.20917 2.16207 10.0187 2 11.0753 2H14.0518V5.24376H11.8724C11.6566 5.24376 11.4556 5.32479 11.274 5.48452C11.094 5.64426 11.0013 5.7962 11.0013 5.93723V7.95533H14.051C14.0191 8.35037 13.984 8.73451 13.9435 9.10541L13.8227 10.0856C13.7744 10.4168 13.7253 10.7238 13.677 11.0066H10.9795V20H6.96044V11.0058H5V7.95533H6.96044V5.47362Z" fill="#CE0E2D"/>
</svg>
